<?xml version="1.0" encoding="UTF-8"?>
<svg version="1.1" xmlns="http://www.w3.org/2000/svg" width="500" height="500">
<path d="M0 0 C165 0 330 0 500 0 C500 165 500 330 500 500 C335 500 170 500 0 500 C0 335 0 170 0 0 Z " fill="transparent" transform="translate(0,0)"/>
<path d="M0 0 C15.8204268 -0.09345986 31.64077901 -0.16398718 47.46141338 -0.20724869 C54.80729592 -0.2278701 62.15300689 -0.25598239 69.4987793 -0.30175781 C75.9016997 -0.34163879 82.30449584 -0.36743589 88.707537 -0.37635398 C92.09766353 -0.3815667 95.48743458 -0.39380894 98.87744713 -0.42292023 C102.66289875 -0.4518868 106.44760998 -0.45595864 110.2331543 -0.45410156 C111.35596802 -0.46848267 112.47878174 -0.48286377 113.63562012 -0.49768066 C121.2273518 -0.45728554 121.2273518 -0.45728554 125.11042786 1.84088135 C129.03118871 6.32093675 129.03118871 6.32093675 128.828125 10.7421875 C127.88042761 17.61160802 126.27056475 24.36469145 124.75 31.125 C124.43133988 32.55686307 124.11314845 33.98883053 123.79541016 35.42089844 C123.3165824 37.57840881 122.83735712 39.735823 122.35623169 41.89282227 C121.20170544 47.07077926 120.07968487 52.25503775 118.97827148 57.44458008 C118.38495228 60.20371847 117.76196995 62.9549805 117.13671875 65.70703125 C116.32636417 69.31788574 115.69057989 72.91447658 115.14453125 76.57421875 C114.82571524 78.36201385 114.50671276 80.1497757 114.1875 81.9375 C114.05964111 83.13584473 114.05964111 83.13584473 113.92919922 84.35839844 C113.38141801 87.15869889 112.74442064 88.71976303 111 91 C106.70027854 93.80182175 102.15515048 95.82004412 97.46658325 97.88381958 C93.0115169 99.89983012 88.67676316 102.15600752 84.3203125 104.375 C82.4680348 105.30715668 80.61516538 106.23813847 78.76171875 107.16796875 C75.91216714 108.59894894 73.06326278 110.03114325 70.21630859 111.46728516 C67.41949138 112.87773476 64.62018193 114.28312125 61.8203125 115.6875 C60.53303757 116.33887939 60.53303757 116.33887939 59.21975708 117.00341797 C58.43067963 117.39803223 57.64160217 117.79264648 56.82861328 118.19921875 C56.13518829 118.54815186 55.44176331 118.89708496 54.72732544 119.2565918 C53 120 53 120 51 120 C48.76535128 115.09777916 47.1729674 110.36175484 45.9375 105.125 C45.77701172 104.46886719 45.61652344 103.81273437 45.45117188 103.13671875 C44.23049576 98.10694489 43.10946659 93.0552959 42 88 C43.43049683 87.33581055 43.43049683 87.33581055 44.88989258 86.65820312 C48.44208039 85.00021878 51.97664392 83.30726409 55.50708008 81.60351562 C57.0341089 80.87258581 58.56568638 80.151078 60.10180664 79.43945312 C62.31634864 78.41150365 64.51202286 77.35016068 66.70703125 76.28125 C67.39150833 75.97255981 68.07598541 75.66386963 68.78120422 75.3458252 C72.53165542 73.47347465 74.3579646 71.97826654 75.8894043 68.00805664 C76.2885461 66.68039733 76.66235494 65.3446149 77 64 C77.32677734 62.80491821 77.32677734 62.80491821 77.66015625 61.58569336 C77.79292969 60.92706299 77.92570312 60.26843262 78.0625 59.58984375 C78.2181543 58.83421143 78.37380859 58.0785791 78.53417969 57.30004883 C78.76476074 56.13058716 78.76476074 56.13058716 79 54.9375 C79.16661133 54.11983154 79.33322266 53.30216309 79.50488281 52.4597168 C80.00971762 49.97439475 80.50549965 47.48739632 81 45 C81.30686917 43.47647734 81.61414133 41.95303578 81.921875 40.4296875 C82.62329986 36.9547626 83.31137112 33.47757584 84 30 C74.1 30 64.2 30 54 30 C53.278125 33.691875 52.55625 37.38375 51.8125 41.1875 C50.8900675 45.79479959 49.94771587 50.39783925 49 55 C48.78649902 56.04430176 48.57299805 57.08860352 48.35302734 58.16455078 C47.75718162 61.03162022 47.1338546 63.89112368 46.5 66.75 C46.32315674 67.61133545 46.14631348 68.4726709 45.96411133 69.36010742 C44.14705451 77.29710704 39.67270052 80.81016479 33 85 C33.20496094 85.74765625 33.40992188 86.4953125 33.62109375 87.265625 C33.89050781 88.25046875 34.15992188 89.2353125 34.4375 90.25 C34.70433594 91.22453125 34.97117187 92.1990625 35.24609375 93.203125 C35.49488281 94.12609375 35.74367188 95.0490625 36 96 C36.17571533 96.62616211 36.35143066 97.25232422 36.5324707 97.89746094 C38.414691 106.36204643 36.21735314 114.75822702 34.25 123 C33.69909872 125.38408685 33.14831787 127.76820153 32.59765625 130.15234375 C32.3258252 131.31233887 32.05399414 132.47233398 31.77392578 133.66748047 C30.52834629 139.03093789 29.36681543 144.41257085 28.20605469 149.79492188 C27.11053677 154.77892645 27.11053677 154.77892645 26 157 C13.13 157 0.26 157 -13 157 C-12.39943795 151.59494158 -11.85243662 146.77542868 -10.6875 141.5625 C-10.28797119 139.75640259 -10.28797119 139.75640259 -9.88037109 137.91381836 C-9.58694535 136.6092052 -9.2934873 135.30459931 -9 134 C-8.69172001 132.61282262 -8.38395425 131.22553088 -8.07666016 129.83813477 C-7.4115108 126.83711505 -6.74405354 123.83662096 -6.07519531 120.83642578 C-4.3519032 113.09666188 -2.65783406 105.35045349 -0.95986938 97.60510254 C-0.18369183 94.06493909 0.59326299 90.52494641 1.370224 86.98495483 C1.91996435 84.48007089 2.46951883 81.97514623 3.01904297 79.47021484 C3.60862522 76.78291041 4.19880199 74.09573988 4.78955078 71.40869141 C5.99460514 65.92608167 7.18988139 60.44158978 8.36572266 54.95263672 C8.84157766 52.73747491 9.32101799 50.52308279 9.80224609 48.30908203 C10.52745148 44.97180214 11.24269446 41.63249982 11.95230103 38.29187012 C12.36562196 36.35641449 12.78757074 34.42280775 13.2097168 32.48925781 C13.45761963 31.31331055 13.70552246 30.13736328 13.9609375 28.92578125 C14.18571777 27.87817627 14.41049805 26.83057129 14.64208984 25.7512207 C15.10456712 22.19620265 14.80809729 20.20706095 12.81665039 17.23242188 C12.33188232 16.65041016 11.84711426 16.06839844 11.34765625 15.46875 C10.81849609 14.82292969 10.28933594 14.17710937 9.74414062 13.51171875 C9.18919922 12.84785156 8.63425781 12.18398437 8.0625 11.5 C6.96667304 10.17988098 5.87410827 8.85704578 4.78515625 7.53125 C4.29926025 6.94923828 3.81336426 6.36722656 3.31274414 5.76757812 C1.94500452 3.92594992 1.00031048 2.05905097 0 0 Z " fill="#1891C8" transform="translate(243,146)"/>
<path d="M0 0 C10.59611835 -0.37239547 21.19065728 -0.65582283 31.79201031 -0.82899475 C36.71632756 -0.91216049 41.63613856 -1.0247072 46.55786133 -1.20703125 C51.31751177 -1.38222696 56.07286154 -1.47680206 60.83548927 -1.51803589 C62.64243112 -1.54737214 64.44916341 -1.60467348 66.25424767 -1.69168091 C79.94653705 -2.32479178 79.94653705 -2.32479178 85.01480484 1.53399658 C88.79514314 5.28223786 91.82653229 9.48075375 94.68230152 13.95928478 C95.99063956 15.98550352 97.39504174 17.90279732 98.83972168 19.83332825 C101 23 101 23 101.1628418 26.0065918 C100.94797119 26.99828369 100.73310059 27.98997559 100.51171875 29.01171875 C100.28274902 30.1414209 100.0537793 31.27112305 99.81787109 32.43505859 C99.54797363 33.61148926 99.27807617 34.78791992 99 36 C98.75975098 37.1648291 98.51950195 38.3296582 98.27197266 39.52978516 C97.48739346 43.29892192 96.65527461 47.05609681 95.8125 50.8125 C95.50586364 52.19245617 95.1996386 53.57250379 94.89379883 54.95263672 C94.41771442 57.10063634 93.94128675 59.24855398 93.46324158 61.39611816 C92.30800817 66.58946048 91.17613593 71.78754773 90.0546875 76.98828125 C89.73859145 78.45012822 89.42243023 79.9119611 89.10620117 81.3737793 C88.65021832 83.48164606 88.19507286 85.58967021 87.74307251 87.69839478 C87.32527569 89.64594538 86.90295864 91.59252459 86.48046875 93.5390625 C86.24223389 94.64459473 86.00399902 95.75012695 85.75854492 96.88916016 C83.63855173 105.58338393 83.63855173 105.58338393 79.796875 108.08984375 C78.4574631 108.7262235 77.10769255 109.34111558 75.75 109.9375 C74.30443202 110.61273458 72.85912476 111.28852756 71.4140625 111.96484375 C70.6809082 112.29983887 69.94775391 112.63483398 69.19238281 112.97998047 C65.79039518 114.56277605 62.46255203 116.28661139 59.125 118 C53.24553571 121 53.24553571 121 51 121 C49.97233226 117.67470114 48.98497334 114.33817814 48 111 C47.78585449 110.28730957 47.57170898 109.57461914 47.35107422 108.84033203 C46.63901696 106.45934394 45.94345928 104.07396474 45.25 101.6875 C45.01514893 100.91100098 44.78029785 100.13450195 44.53833008 99.33447266 C44.3245874 98.58858887 44.11084473 97.84270508 43.890625 97.07421875 C43.69500977 96.40994873 43.49939453 95.74567871 43.29785156 95.0612793 C42.89399 92.26635867 42.96374404 90.65718724 44 88 C46.22291442 86.47563381 48.17736411 85.36154525 50.58984375 84.23046875 C51.57942833 83.74166985 51.57942833 83.74166985 52.58900452 83.24299622 C54.6973013 82.20739167 56.81701964 81.19788186 58.9375 80.1875 C60.36209829 79.48919923 61.78593707 78.7893467 63.20898438 78.08789062 C64.56443626 77.42571439 65.92053538 76.76486105 67.27734375 76.10546875 C67.9200975 75.79304733 68.56285126 75.48062592 69.2250824 75.15873718 C73.76208352 73 73.76208352 73 76 73 C76.13575439 72.32122803 76.27150879 71.64245605 76.41137695 70.94311523 C76.60175537 69.99122314 76.79213379 69.03933105 76.98828125 68.05859375 C77.1987207 67.00615479 77.40916016 65.95371582 77.62597656 64.86938477 C78.08458554 62.57682917 78.54357144 60.28434894 79.00292969 57.99194336 C79.99885736 53.01972147 80.99406811 48.04751401 81.96484375 43.0703125 C82.16823364 42.0330603 82.16823364 42.0330603 82.37573242 40.97485352 C82.72644726 39.18284482 83.07426558 37.39026992 83.421875 35.59765625 C84 33 84 33 85 31 C74.77 31 64.54 31 54 31 C53.67 33.31 53.34 35.62 53 38 C52.10469586 42.7419929 51.10778731 47.46292979 50.125 52.1875 C49.86847656 53.43853516 49.61195313 54.68957031 49.34765625 55.97851562 C48.58553444 59.65699803 47.79361082 63.32820388 47 67 C46.77497803 68.13872559 46.54995605 69.27745117 46.31811523 70.45068359 C44.62954086 78.31394917 44.62954086 78.31394917 41.51953125 81.703125 C40.62621094 82.21359375 39.73289063 82.7240625 38.8125 83.25 C37.91144531 83.79140625 37.01039063 84.3328125 36.08203125 84.890625 C35.39496094 85.25671875 34.70789063 85.6228125 34 86 C34.20496094 86.83402344 34.40992188 87.66804688 34.62109375 88.52734375 C34.89050781 89.65269531 35.15992188 90.77804688 35.4375 91.9375 C35.70433594 93.03964844 35.97117188 94.14179688 36.24609375 95.27734375 C36.49488281 96.50582031 36.74367187 97.73429687 37 99 C37.21426636 99.9439563 37.21426636 99.9439563 37.43286133 100.90698242 C38.78972987 108.62138524 36.58487422 115.96010383 34.8125 123.4375 C34.5032211 124.78550142 34.19527133 126.1338085 33.88867188 127.48242188 C32.93454855 131.65696144 31.96711961 135.82845214 31 140 C29.68 145.94 28.36 151.88 27 158 C13.8 158 0.6 158 -13 158 C-11.87524314 150.12670198 -11.87524314 150.12670198 -11.18725586 147.04467773 C-11.032659 146.34555267 -10.87806213 145.64642761 -10.71878052 144.92611694 C-10.55248138 144.18608429 -10.38618225 143.44605164 -10.21484375 142.68359375 C-10.03823212 141.88668121 -9.86162048 141.08976868 -9.67965698 140.26870728 C-9.29932098 138.55277996 -8.9179199 136.83708844 -8.53555298 135.12161255 C-7.50966606 130.51734494 -6.49234931 125.91119263 -5.4765625 121.3046875 C-5.26870621 120.36212601 -5.06084991 119.41956451 -4.84669495 118.44844055 C-2.7694531 109.00012201 -0.78625508 99.53286949 1.1875 90.0625 C4.45229438 74.41575354 7.96973814 58.83825556 11.64160156 43.28173828 C12.22645394 40.7935668 12.80177808 38.30337208 13.375 35.8125 C13.62685059 34.7611084 13.62685059 34.7611084 13.88378906 33.68847656 C15.81443282 26.06602057 15.81443282 26.06602057 13.69726562 18.8137207 C11.89752609 16.38290036 10.01246302 14.06190951 8.0625 11.75 C6.75840397 10.16417844 5.45747156 8.57574845 4.16015625 6.984375 C3.57886963 6.29053711 2.99758301 5.59669922 2.39868164 4.88183594 C1 3 1 3 0 0 Z " fill="#030303" transform="translate(152,145)"/>
<path d="M0 0 C0.33 0 0.66 0 1 0 C1.15855469 0.56847656 1.31710937 1.13695312 1.48046875 1.72265625 C1.83044922 2.88087891 1.83044922 2.88087891 2.1875 4.0625 C2.40792969 4.81660156 2.62835938 5.57070313 2.85546875 6.34765625 C5.79777983 13.16618601 10.09822764 17.27442657 16.25 21.25 C16.9423877 21.71325684 17.63477539 22.17651367 18.34814453 22.65380859 C22.02444436 25.10054911 25.7433655 27.47718382 29.4765625 29.8359375 C54.18968921 45.47422302 54.18968921 45.47422302 59.375 58.4375 C60.53741093 65.06324232 60.59105723 70.68429801 58 77 C56 76 56 76 55.2109375 73.8828125 C54.93507813 72.97273438 54.65921875 72.06265625 54.375 71.125 C47.76378447 52.42954803 29.77821268 42.5128833 14.26025391 31.79882812 C-0.98651169 21.25530209 -0.98651169 21.25530209 -3 13 C-3.58139684 7.83085354 -3.32080929 4.25063589 0 0 Z " fill="#26AADA" transform="translate(299,277)"/>
<path d="M0 0 C2 3 2 3 3.5 6.6875 C8.67720147 17.05366931 21.58152711 22.4947598 31.25927734 27.92456055 C43.15577269 34.62856217 57.81647713 44.0473859 62 58 C62.6719058 64.77712395 62.40374849 70.59641403 60 77 C58 74 58 74 57.75 71 C56.59656983 62.03728033 50.72038078 54.88624171 44.02734375 49.25 C37.38657174 44.31440686 30.27185561 40.11594854 23.15527344 35.90966797 C1.75236169 23.25708506 1.75236169 23.25708506 -2 12 C-2.4 3.6 -2.4 3.6 0 0 Z " fill="#28AADA" transform="translate(303,268)"/>
<path d="M0 0 C0.66 0 1.32 0 2 0 C2.56170527 5.39237057 1.75873712 8.57012864 -1.35546875 13.03125 C-12.33863339 26.17974164 -33.07369913 32.4205109 -49 37 C-49.66 37 -50.32 37 -51 37 C-51.33 34.69 -51.66 32.38 -52 30 C-48.70671884 27.23396829 -45.38139177 25.83562715 -41.375 24.3125 C-17.6505052 16.2163631 -17.6505052 16.2163631 0 0 Z " fill="#9A9A9A" transform="translate(359,237)"/>
<path d="M0 0 C2 2 2 2 2.1171875 3.953125 C1.26773693 12.00920459 -2.13513535 16.96407109 -8.28515625 22.140625 C-17.39114266 28.37724303 -34.21621249 37.68653191 -45.27734375 36.7109375 C-48.14031305 35.96336159 -49.28589056 35.38070756 -51 33 C-51 32.34 -51 31.68 -51 31 C-50.01902344 30.64808594 -49.03804688 30.29617188 -48.02734375 29.93359375 C-35.56958061 25.40477183 -23.55255047 20.46767589 -12.3125 13.375 C-11.73612793 13.01494873 -11.15975586 12.65489746 -10.56591797 12.28393555 C-5.66900678 9.08031473 -2.37367435 5.3407673 0 0 Z " fill="#969696" transform="translate(362,245)"/>
<path d="M0 0 C2.57842672 0.62287837 3.52512929 1.37242754 5.0859375 3.50390625 C5.50500643 7.83428518 5.56558922 10.4007073 3.8359375 14.37890625 C1.91721431 16.70878441 0.9908284 17.69699211 -1.9140625 18.50390625 C-5.59467025 18.37476212 -7.985739 18.28250016 -10.8515625 15.87890625 C-12.37980562 12.46283339 -12.42573329 10.21351949 -11.9140625 6.50390625 C-8.73474843 0.86318773 -6.12151724 -0.15669413 0 0 Z " fill="#2196CA" transform="translate(309.9140625,318.49609375)"/>
<path d="M0 0 C2 1 2 1 3 3 C3.41906893 7.33037893 3.47965172 9.89680105 1.75 13.875 C-0.16872319 16.20487816 -1.0951091 17.19308586 -4 18 C-7.68060775 17.87085587 -10.0716765 17.77859391 -12.9375 15.375 C-14.44290722 12.00997209 -14.44819965 9.64962568 -14 6 C-10.18756008 0.1542588 -6.82670065 -0.72594772 0 0 Z " fill="#0C0C0C" transform="translate(208,319)"/>
<path d="M0 0 C2 1 2 1 3 3 C3.41906893 7.33037893 3.47965172 9.89680105 1.75 13.875 C-0.16872319 16.20487816 -1.0951091 17.19308586 -4 18 C-7.6322946 17.87255107 -10.05799733 17.706502 -13 15.5 C-14.57843028 11.55392429 -14.19312873 8.0388519 -13 4 C-9.23174879 -0.68176665 -5.62060241 -0.63458414 0 0 Z " fill="#0C0C0C" transform="translate(144,319)"/>
<path d="M0 0 C2.13501503 1.56957726 2.88491508 2.48787212 3.46875 5.0859375 C3.53004233 9.57560094 3.4994597 11.38528037 0.5625 15 C-0.283125 15.66 -1.12875 16.32 -2 17 C-2.33 17.33 -2.66 17.66 -3 18 C-6.44683871 18.38298208 -8.37703045 18.37706052 -11.375 16.5625 C-13.78878921 12.7561401 -13.8807518 9.38037623 -13 5 C-9.39142215 -0.52563484 -6.13560894 -0.79169148 0 0 Z " fill="#0B0B0B" transform="translate(246,319)"/>
<path d="M0 0 C9.1796875 -0.1953125 9.1796875 -0.1953125 12 0 C14 2 14 2 14.1953125 4.71484375 C14.16050781 6.31005859 14.16050781 6.31005859 14.125 7.9375 C14.10695313 8.99839844 14.08890625 10.05929687 14.0703125 11.15234375 C14.04710937 12.09207031 14.02390625 13.03179687 14 14 C14 14.99 14 15.98 14 17 C12.25 17.75 12.25 17.75 10 18 C7.75 16.0625 7.75 16.0625 6 14 C6 14.99 6 15.98 6 17 C4.02 17.33 2.04 17.66 0 18 C0 12.06 0 6.12 0 0 Z " fill="#329ECE" transform="translate(282,320)"/>
<path d="M0 0 C10.48724969 -0.37013822 10.48724969 -0.37013822 12.83984375 1.328125 C14.6113272 3.88096984 14.24747147 5.96847444 14 9 C13.814375 9.721875 13.62875 10.44375 13.4375 11.1875 C12.77806294 13.2175204 12.77806294 13.2175204 14 16 C12.02 16.99 12.02 16.99 10 18 C8.35 16.68 6.7 15.36 5 14 C5 14.99 5 15.98 5 17 C3.35 17 1.7 17 0 17 C0 11.39 0 5.78 0 0 Z " fill="#070707" transform="translate(149,320)"/>
<path d="M0 0 C9.1796875 -0.1953125 9.1796875 -0.1953125 12 0 C14 2 14 2 14.3125 5.9375 C14.23778547 8.51515144 14.17462874 9.71507942 12.8125 11.9375 C10.57501375 13.24912987 8.55687669 13.65447612 6 14 C6 14.99 6 15.98 6 17 C4.02 17.33 2.04 17.66 0 18 C0 12.06 0 6.12 0 0 Z " fill="#309DCE" transform="translate(267,320)"/>
<path d="M0 0 C10.49282564 -0.37033502 10.49282564 -0.37033502 12.82421875 1.33203125 C14.71291804 4.01134885 14.50969827 5.81438583 14 9 C11.75 11.875 11.75 11.875 9 14 C7.68 14 6.36 14 5 14 C5 14.99 5 15.98 5 17 C3.35 17 1.7 17 0 17 C0 11.39 0 5.78 0 0 Z " fill="#060606" transform="translate(115,320)"/>
<path d="M0 0 C2 3 2 3 3.25 5.75 C8.77846917 16.01715703 18.00531421 21.38124939 27.9375 26.9375 C34.3220845 30.510556 40.23804303 34.47401836 46 39 C46.8146875 39.62519531 47.629375 40.25039063 48.46875 40.89453125 C54.31207463 45.67631857 58.11556423 50.99817355 61 58 C61 58.99 61 59.98 61 61 C60.01 61.33 59.02 61.66 58 62 C57.690625 60.72125 57.38125 59.4425 57.0625 58.125 C52.00953114 43.15411087 34.79630904 34.75018038 22.2565918 26.74291992 C2.57888277 14.12731987 2.57888277 14.12731987 0.41015625 5.7109375 C0.125 3.5 0.125 3.5 0 0 Z " fill="transparent" transform="translate(300,277)"/>
<path d="M0 0 C3.96 0 7.92 0 12 0 C11.67 1.65 11.34 3.3 11 5 C9.02 5 7.04 5 5 5 C5 5.66 5 6.32 5 7 C6.98 7 8.96 7 11 7 C11 8.32 11 9.64 11 11 C9.02 11 7.04 11 5 11 C5 13.31 5 15.62 5 18 C3.35 18 1.7 18 0 18 C0 12.06 0 6.12 0 0 Z " fill="#0E0E0E" transform="translate(181,319)"/>
<path d="M0 0 C1.65 0 3.3 0 5 0 C5 3.96 5 7.92 5 12 C6.98 12 8.96 12 11 12 C11 13.65 11 15.3 11 17 C8.11788698 17.96070434 6.30149956 18.10581883 3.3125 18.0625 C2.10013672 18.04896484 2.10013672 18.04896484 0.86328125 18.03515625 C0.24839844 18.02355469 -0.36648437 18.01195312 -1 18 C-1.02684312 15.18743719 -1.04676188 12.37512759 -1.0625 9.5625 C-1.07087891 8.76005859 -1.07925781 7.95761719 -1.08789062 7.13085938 C-1.0965143 5.08704779 -1.0522815 3.04316098 -1 1 C-0.67 0.67 -0.34 0.34 0 0 Z " fill="#202020" transform="translate(213,319)"/>
<path d="M0 0 C0 1.65 0 3.3 0 5 C-1.65 5 -3.3 5 -5 5 C-5 9.29 -5 13.58 -5 18 C-6.65 18 -8.3 18 -10 18 C-10 14.04 -10 10.08 -10 6 C-11.65 6 -13.3 6 -15 6 C-15 4.35 -15 2.7 -15 1 C-10.03926578 -0.32286246 -5.08888488 -0.08893197 0 0 Z " fill="#060606" transform="translate(179,319)"/>
<path d="M0 0 C0.99 0.33 1.98 0.66 3 1 C-6.64804792 14.23160857 -26.56883967 22.53162444 -42 27 C-42.99 27 -43.98 27 -45 27 C-45 26.01 -45 25.02 -45 24 C-44.41210693 23.79955078 -43.82421387 23.59910156 -43.21850586 23.39257812 C-18.57111295 16.17255458 -18.57111295 16.17255458 0 0 Z " fill="transparent" transform="translate(358,248)"/>
<path d="M0 0 C1.65 0 3.3 0 5 0 C5 5.94 5 11.88 5 18 C3.35 18 1.7 18 0 18 C0 12.06 0 6.12 0 0 Z " fill="#080808" transform="translate(226,319)"/>
<path d="M0 0 C5.3978265 0.84045106 7.89229319 4.81793515 11 9 C13.23745063 12.67907334 15 15.64436125 15 20 C14.01 20.33 13.02 20.66 12 21 C11.5359375 19.081875 11.5359375 19.081875 11.0625 17.125 C9.28131015 11.6155353 5.86156177 8.14120889 1.86328125 4.06640625 C0 2 0 2 0 0 Z " fill="transparent" transform="translate(346,318)"/>
<path d="M0 0 C0 0.66 0 1.32 0 2 C-1.76858691 2.67260351 -3.53996016 3.33788395 -5.3125 4 C-6.29863281 4.37125 -7.28476562 4.7425 -8.30078125 5.125 C-11 6 -11 6 -14 6 C-14 5.01 -14 4.02 -14 3 C-12.04486839 2.303447 -10.08577524 1.61800435 -8.125 0.9375 C-7.03445313 0.55464844 -5.94390625 0.17179687 -4.8203125 -0.22265625 C-2 -1 -2 -1 0 0 Z " fill="transparent" transform="translate(327,269)"/>
<path d="M0 0 C1.67542976 0.28604898 3.34385343 0.61781233 5 1 C4.67 2.32 4.34 3.64 4 5 C2.35 5.33 0.7 5.66 -1 6 C-1.042721 4.33388095 -1.04063832 2.66617115 -1 1 C-0.67 0.67 -0.34 0.34 0 0 Z " fill="transparent" transform="translate(305,325)"/>
<path d="M0 0 C1.2065625 0.0309375 1.2065625 0.0309375 2.4375 0.0625 C2.1075 1.7125 1.7775 3.3625 1.4375 5.0625 C0.1175 5.3925 -1.2025 5.7225 -2.5625 6.0625 C-2.94468767 4.40635343 -3.27645102 2.73792976 -3.5625 1.0625 C-2.5625 0.0625 -2.5625 0.0625 0 0 Z " fill="transparent" transform="translate(241.5625,324.9375)"/>
<path d="M0 0 C1.67542976 0.28604898 3.34385343 0.61781233 5 1 C4.67 2.32 4.34 3.64 4 5 C2.35 5.33 0.7 5.66 -1 6 C-1.042721 4.33388095 -1.04063832 2.66617115 -1 1 C-0.67 0.67 -0.34 0.34 0 0 Z " fill="transparent" transform="translate(201,325)"/>
<path d="M0 0 C1.67542976 0.28604898 3.34385343 0.61781233 5 1 C4.67 2.32 4.34 3.64 4 5 C2.35 5.33 0.7 5.66 -1 6 C-1.042721 4.33388095 -1.04063832 2.66617115 -1 1 C-0.67 0.67 -0.34 0.34 0 0 Z " fill="transparent" transform="translate(137,325)"/>
<path d="M0 0 C1.98 0.495 1.98 0.495 4 1 C3.67 2.32 3.34 3.64 3 5 C1.68 4.67 0.36 4.34 -1 4 C-0.67 2.68 -0.34 1.36 0 0 Z " fill="#1F1F1F" transform="translate(227,313)"/>
<path d="M0 0 C1.32 0.33 2.64 0.66 4 1 C3.67 2.32 3.34 3.64 3 5 C2.01 5 1.02 5 0 5 C0 3.35 0 1.7 0 0 Z " fill="transparent" transform="translate(154,324)"/>
<path d="M0 0 C1.32 0.33 2.64 0.66 4 1 C3.67 2.32 3.34 3.64 3 5 C2.01 5 1.02 5 0 5 C0 3.35 0 1.7 0 0 Z " fill="transparent" transform="translate(120,324)"/>
</svg>
